<svg class="rich-terminal" viewBox="0 0 2214 1270.0" xmlns="http://www.w3.org/2000/svg">
    <!-- Generated with Rich https://www.textualize.io -->
    <style>

    @font-face {
        font-family: "Fira Code";
        src: local("FiraCode-Regular"),
                url("https://cdnjs.cloudflare.com/ajax/libs/firacode/6.2.0/woff2/FiraCode-Regular.woff2") format("woff2"),
                url("https://cdnjs.cloudflare.com/ajax/libs/firacode/6.2.0/woff/FiraCode-Regular.woff") format("woff");
        font-style: normal;
        font-weight: 400;
    }
    @font-face {
        font-family: "Fira Code";
        src: local("FiraCode-Bold"),
                url("https://cdnjs.cloudflare.com/ajax/libs/firacode/6.2.0/woff2/FiraCode-Bold.woff2") format("woff2"),
                url("https://cdnjs.cloudflare.com/ajax/libs/firacode/6.2.0/woff/FiraCode-Bold.woff") format("woff");
        font-style: bold;
        font-weight: 700;
    }

    .terminal-102915843-matrix {
        font-family: Fira Code, monospace;
        font-size: 20px;
        line-height: 24.4px;
        font-variant-east-asian: full-width;
    }

    .terminal-102915843-title {
        font-size: 18px;
        font-weight: bold;
        font-family: arial;
    }

    .terminal-102915843-r1 { fill: #c5c8c6 }
.terminal-102915843-r2 { fill: #e0e0e0 }
.terminal-102915843-r3 { fill: #a0a3a6 }
.terminal-102915843-r4 { fill: #c5c6c7 }
.terminal-102915843-r5 { fill: #fea62b }
.terminal-102915843-r6 { fill: #fea62b;font-weight: bold }
.terminal-102915843-r7 { fill: #242f38 }
.terminal-102915843-r8 { fill: #191919 }
.terminal-102915843-r9 { fill: #8ad4a1 }
.terminal-102915843-r10 { fill: #000f18 }
.terminal-102915843-r11 { fill: #0178d4 }
.terminal-102915843-r12 { fill: #121212 }
.terminal-102915843-r13 { fill: #7ae998 }
.terminal-102915843-r14 { fill: #0a180e;font-weight: bold }
.terminal-102915843-r15 { fill: #008139 }
.terminal-102915843-r16 { fill: #b93c5b;font-weight: bold }
.terminal-102915843-r17 { fill: #808080 }
.terminal-102915843-r18 { fill: #ffa62b;font-weight: bold }
.terminal-102915843-r19 { fill: #495259 }
    </style>

    <defs>
    <clipPath id="terminal-102915843-clip-terminal">
      <rect x="0" y="0" width="2195.0" height="1219.0" />
    </clipPath>
    <clipPath id="terminal-102915843-line-0">
    <rect x="0" y="1.5" width="2196" height="24.65"/>
            </clipPath>
<clipPath id="terminal-102915843-line-1">
    <rect x="0" y="25.9" width="2196" height="24.65"/>
            </clipPath>
<clipPath id="terminal-102915843-line-2">
    <rect x="0" y="50.3" width="2196" height="24.65"/>
            </clipPath>
<clipPath id="terminal-102915843-line-3">
    <rect x="0" y="74.7" width="2196" height="24.65"/>
            </clipPath>
<clipPath id="terminal-102915843-line-4">
    <rect x="0" y="99.1" width="2196" height="24.65"/>
            </clipPath>
<clipPath id="terminal-102915843-line-5">
    <rect x="0" y="123.5" width="2196" height="24.65"/>
            </clipPath>
<clipPath id="terminal-102915843-line-6">
    <rect x="0" y="147.9" width="2196" height="24.65"/>
            </clipPath>
<clipPath id="terminal-102915843-line-7">
    <rect x="0" y="172.3" width="2196" height="24.65"/>
            </clipPath>
<clipPath id="terminal-102915843-line-8">
    <rect x="0" y="196.7" width="2196" height="24.65"/>
            </clipPath>
<clipPath id="terminal-102915843-line-9">
    <rect x="0" y="221.1" width="2196" height="24.65"/>
            </clipPath>
<clipPath id="terminal-102915843-line-10">
    <rect x="0" y="245.5" width="2196" height="24.65"/>
            </clipPath>
<clipPath id="terminal-102915843-line-11">
    <rect x="0" y="269.9" width="2196" height="24.65"/>
            </clipPath>
<clipPath id="terminal-102915843-line-12">
    <rect x="0" y="294.3" width="2196" height="24.65"/>
            </clipPath>
<clipPath id="terminal-102915843-line-13">
    <rect x="0" y="318.7" width="2196" height="24.65"/>
            </clipPath>
<clipPath id="terminal-102915843-line-14">
    <rect x="0" y="343.1" width="2196" height="24.65"/>
            </clipPath>
<clipPath id="terminal-102915843-line-15">
    <rect x="0" y="367.5" width="2196" height="24.65"/>
            </clipPath>
<clipPath id="terminal-102915843-line-16">
    <rect x="0" y="391.9" width="2196" height="24.65"/>
            </clipPath>
<clipPath id="terminal-102915843-line-17">
    <rect x="0" y="416.3" width="2196" height="24.65"/>
            </clipPath>
<clipPath id="terminal-102915843-line-18">
    <rect x="0" y="440.7" width="2196" height="24.65"/>
            </clipPath>
<clipPath id="terminal-102915843-line-19">
    <rect x="0" y="465.1" width="2196" height="24.65"/>
            </clipPath>
<clipPath id="terminal-102915843-line-20">
    <rect x="0" y="489.5" width="2196" height="24.65"/>
            </clipPath>
<clipPath id="terminal-102915843-line-21">
    <rect x="0" y="513.9" width="2196" height="24.65"/>
            </clipPath>
<clipPath id="terminal-102915843-line-22">
    <rect x="0" y="538.3" width="2196" height="24.65"/>
            </clipPath>
<clipPath id="terminal-102915843-line-23">
    <rect x="0" y="562.7" width="2196" height="24.65"/>
            </clipPath>
<clipPath id="terminal-102915843-line-24">
    <rect x="0" y="587.1" width="2196" height="24.65"/>
            </clipPath>
<clipPath id="terminal-102915843-line-25">
    <rect x="0" y="611.5" width="2196" height="24.65"/>
            </clipPath>
<clipPath id="terminal-102915843-line-26">
    <rect x="0" y="635.9" width="2196" height="24.65"/>
            </clipPath>
<clipPath id="terminal-102915843-line-27">
    <rect x="0" y="660.3" width="2196" height="24.65"/>
            </clipPath>
<clipPath id="terminal-102915843-line-28">
    <rect x="0" y="684.7" width="2196" height="24.65"/>
            </clipPath>
<clipPath id="terminal-102915843-line-29">
    <rect x="0" y="709.1" width="2196" height="24.65"/>
            </clipPath>
<clipPath id="terminal-102915843-line-30">
    <rect x="0" y="733.5" width="2196" height="24.65"/>
            </clipPath>
<clipPath id="terminal-102915843-line-31">
    <rect x="0" y="757.9" width="2196" height="24.65"/>
            </clipPath>
<clipPath id="terminal-102915843-line-32">
    <rect x="0" y="782.3" width="2196" height="24.65"/>
            </clipPath>
<clipPath id="terminal-102915843-line-33">
    <rect x="0" y="806.7" width="2196" height="24.65"/>
            </clipPath>
<clipPath id="terminal-102915843-line-34">
    <rect x="0" y="831.1" width="2196" height="24.65"/>
            </clipPath>
<clipPath id="terminal-102915843-line-35">
    <rect x="0" y="855.5" width="2196" height="24.65"/>
            </clipPath>
<clipPath id="terminal-102915843-line-36">
    <rect x="0" y="879.9" width="2196" height="24.65"/>
            </clipPath>
<clipPath id="terminal-102915843-line-37">
    <rect x="0" y="904.3" width="2196" height="24.65"/>
            </clipPath>
<clipPath id="terminal-102915843-line-38">
    <rect x="0" y="928.7" width="2196" height="24.65"/>
            </clipPath>
<clipPath id="terminal-102915843-line-39">
    <rect x="0" y="953.1" width="2196" height="24.65"/>
            </clipPath>
<clipPath id="terminal-102915843-line-40">
    <rect x="0" y="977.5" width="2196" height="24.65"/>
            </clipPath>
<clipPath id="terminal-102915843-line-41">
    <rect x="0" y="1001.9" width="2196" height="24.65"/>
            </clipPath>
<clipPath id="terminal-102915843-line-42">
    <rect x="0" y="1026.3" width="2196" height="24.65"/>
            </clipPath>
<clipPath id="terminal-102915843-line-43">
    <rect x="0" y="1050.7" width="2196" height="24.65"/>
            </clipPath>
<clipPath id="terminal-102915843-line-44">
    <rect x="0" y="1075.1" width="2196" height="24.65"/>
            </clipPath>
<clipPath id="terminal-102915843-line-45">
    <rect x="0" y="1099.5" width="2196" height="24.65"/>
            </clipPath>
<clipPath id="terminal-102915843-line-46">
    <rect x="0" y="1123.9" width="2196" height="24.65"/>
            </clipPath>
<clipPath id="terminal-102915843-line-47">
    <rect x="0" y="1148.3" width="2196" height="24.65"/>
            </clipPath>
<clipPath id="terminal-102915843-line-48">
    <rect x="0" y="1172.7" width="2196" height="24.65"/>
            </clipPath>
    </defs>

    <rect fill="#292929" stroke="rgba(255,255,255,0.35)" stroke-width="1" x="1" y="1" width="2212" height="1268" rx="8"/><text class="terminal-102915843-title" fill="#c5c8c6" text-anchor="middle" x="1106" y="27">dr-tui</text>
            <g transform="translate(26,22)">
            <circle cx="0" cy="0" r="7" fill="#ff5f57"/>
            <circle cx="22" cy="0" r="7" fill="#febc2e"/>
            <circle cx="44" cy="0" r="7" fill="#28c840"/>
            </g>
        
    <g transform="translate(9, 41)" clip-path="url(#terminal-102915843-clip-terminal)">
    <rect fill="#242f38" x="0" y="1.5" width="12.2" height="24.65" shape-rendering="crispEdges"/><rect fill="#242f38" x="12.2" y="1.5" width="12.2" height="24.65" shape-rendering="crispEdges"/><rect fill="#242f38" x="24.4" y="1.5" width="61" height="24.65" shape-rendering="crispEdges"/><rect fill="#242f38" x="85.4" y="1.5" width="12.2" height="24.65" shape-rendering="crispEdges"/><rect fill="#242f38" x="97.6" y="1.5" width="793" height="24.65" shape-rendering="crispEdges"/><rect fill="#242f38" x="890.6" y="1.5" width="73.2" height="24.65" shape-rendering="crispEdges"/><rect fill="#242f38" x="963.8" y="1.5" width="36.6" height="24.65" shape-rendering="crispEdges"/><rect fill="#242f38" x="1000.4" y="1.5" width="280.6" height="24.65" shape-rendering="crispEdges"/><rect fill="#242f38" x="1281" y="1.5" width="793" height="24.65" shape-rendering="crispEdges"/><rect fill="#2c363f" x="2074" y="1.5" width="12.2" height="24.65" shape-rendering="crispEdges"/><rect fill="#2c363f" x="2086.2" y="1.5" width="97.6" height="24.65" shape-rendering="crispEdges"/><rect fill="#2c363f" x="2183.8" y="1.5" width="12.2" height="24.65" shape-rendering="crispEdges"/><rect fill="#242f38" x="0" y="25.9" width="12.2" height="24.65" shape-rendering="crispEdges"/><rect fill="#242f38" x="12.2" y="25.9" width="707.6" height="24.65" shape-rendering="crispEdges"/><rect fill="#242f38" x="719.8" y="25.9" width="12.2" height="24.65" shape-rendering="crispEdges"/><rect fill="#1e1e1e" x="732" y="25.9" width="1464" height="24.65" shape-rendering="crispEdges"/><rect fill="#242f38" x="0" y="50.3" width="12.2" height="24.65" shape-rendering="crispEdges"/><rect fill="#242f38" x="12.2" y="50.3" width="707.6" height="24.65" shape-rendering="crispEdges"/><rect fill="#242f38" x="719.8" y="50.3" width="12.2" height="24.65" shape-rendering="crispEdges"/><rect fill="#1e1e1e" x="732" y="50.3" width="1464" height="24.65" shape-rendering="crispEdges"/><rect fill="#242f38" x="0" y="74.7" width="12.2" height="24.65" shape-rendering="crispEdges"/><rect fill="#242f38" x="12.2" y="74.7" width="24.4" height="24.65" shape-rendering="crispEdges"/><rect fill="#242f38" x="36.6" y="74.7" width="219.6" height="24.65" shape-rendering="crispEdges"/><rect fill="#242f38" x="256.2" y="74.7" width="207.4" height="24.65" shape-rendering="crispEdges"/><rect fill="#242f38" x="463.6" y="74.7" width="231.8" height="24.65" shape-rendering="crispEdges"/><rect fill="#242f38" x="695.4" y="74.7" width="24.4" height="24.65" shape-rendering="crispEdges"/><rect fill="#242f38" x="719.8" y="74.7" width="12.2" height="24.65" shape-rendering="crispEdges"/><rect fill="#1e1e1e" x="732" y="74.7" width="1464" height="24.65" shape-rendering="crispEdges"/><rect fill="#242f38" x="0" y="99.1" width="12.2" height="24.65" shape-rendering="crispEdges"/><rect fill="#242f38" x="12.2" y="99.1" width="24.4" height="24.65" shape-rendering="crispEdges"/><rect fill="#242f38" x="36.6" y="99.1" width="658.8" height="24.65" shape-rendering="crispEdges"/><rect fill="#242f38" x="695.4" y="99.1" width="24.4" height="24.65" shape-rendering="crispEdges"/><rect fill="#242f38" x="719.8" y="99.1" width="12.2" height="24.65" shape-rendering="crispEdges"/><rect fill="#1e1e1e" x="732" y="99.1" width="1464" height="24.65" shape-rendering="crispEdges"/><rect fill="#242f38" x="0" y="123.5" width="12.2" height="24.65" shape-rendering="crispEdges"/><rect fill="#242f38" x="12.2" y="123.5" width="24.4" height="24.65" shape-rendering="crispEdges"/><rect fill="#242f38" x="36.6" y="123.5" width="134.2" height="24.65" shape-rendering="crispEdges"/><rect fill="#242f38" x="170.8" y="123.5" width="524.6" height="24.65" shape-rendering="crispEdges"/><rect fill="#242f38" x="695.4" y="123.5" width="24.4" height="24.65" shape-rendering="crispEdges"/><rect fill="#242f38" x="719.8" y="123.5" width="12.2" height="24.65" shape-rendering="crispEdges"/><rect fill="#1e1e1e" x="732" y="123.5" width="1464" height="24.65" shape-rendering="crispEdges"/><rect fill="#242f38" x="0" y="147.9" width="12.2" height="24.65" shape-rendering="crispEdges"/><rect fill="#242f38" x="12.2" y="147.9" width="24.4" height="24.65" shape-rendering="crispEdges"/><rect fill="#191919" x="36.6" y="147.9" width="12.2" height="24.65" shape-rendering="crispEdges"/><rect fill="#1e1e1e" x="48.8" y="147.9" width="634.4" height="24.65" shape-rendering="crispEdges"/><rect fill="#242f38" x="683.2" y="147.9" width="12.2" height="24.65" shape-rendering="crispEdges"/><rect fill="#242f38" x="695.4" y="147.9" width="24.4" height="24.65" shape-rendering="crispEdges"/><rect fill="#242f38" x="719.8" y="147.9" width="12.2" height="24.65" shape-rendering="crispEdges"/><rect fill="#1e1e1e" x="732" y="147.9" width="1464" height="24.65" shape-rendering="crispEdges"/><rect fill="#242f38" x="0" y="172.3" width="12.2" height="24.65" shape-rendering="crispEdges"/><rect fill="#242f38" x="12.2" y="172.3" width="24.4" height="24.65" shape-rendering="crispEdges"/><rect fill="#191919" x="36.6" y="172.3" width="12.2" height="24.65" shape-rendering="crispEdges"/><rect fill="#1e1e1e" x="48.8" y="172.3" width="12.2" height="24.65" shape-rendering="crispEdges"/><rect fill="#1e1e1e" x="61" y="172.3" width="12.2" height="24.65" shape-rendering="crispEdges"/><rect fill="#242f38" x="73.2" y="172.3" width="12.2" height="24.65" shape-rendering="crispEdges"/><rect fill="#1e1e1e" x="85.4" y="172.3" width="12.2" height="24.65" shape-rendering="crispEdges"/><rect fill="#153854" x="97.6" y="172.3" width="439.2" height="24.65" shape-rendering="crispEdges"/><rect fill="#1e1e1e" x="536.8" y="172.3" width="134.2" height="24.65" shape-rendering="crispEdges"/><rect fill="#1e1e1e" x="671" y="172.3" width="12.2" height="24.65" shape-rendering="crispEdges"/><rect fill="#242f38" x="683.2" y="172.3" width="12.2" height="24.65" shape-rendering="crispEdges"/><rect fill="#242f38" x="695.4" y="172.3" width="24.4" height="24.65" shape-rendering="crispEdges"/><rect fill="#242f38" x="719.8" y="172.3" width="12.2" height="24.65" shape-rendering="crispEdges"/><rect fill="#1e1e1e" x="732" y="172.3" width="1464" height="24.65" shape-rendering="crispEdges"/><rect fill="#242f38" x="0" y="196.7" width="12.2" height="24.65" shape-rendering="crispEdges"/><rect fill="#242f38" x="12.2" y="196.7" width="24.4" height="24.65" shape-rendering="crispEdges"/><rect fill="#191919" x="36.6" y="196.7" width="12.2" height="24.65" shape-rendering="crispEdges"/><rect fill="#1e1e1e" x="48.8" y="196.7" width="12.2" height="24.65" shape-rendering="crispEdges"/><rect fill="#1e1e1e" x="61" y="196.7" width="12.2" height="24.65" shape-rendering="crispEdges"/><rect fill="#242f38" x="73.2" y="196.7" width="12.2" height="24.65" shape-rendering="crispEdges"/><rect fill="#1e1e1e" x="85.4" y="196.7" width="12.2" height="24.65" shape-rendering="crispEdges"/><rect fill="#1e1e1e" x="97.6" y="196.7" width="549" height="24.65" shape-rendering="crispEdges"/><rect fill="#1e1e1e" x="646.6" y="196.7" width="24.4" height="24.65" shape-rendering="crispEdges"/><rect fill="#1e1e1e" x="671" y="196.7" width="12.2" height="24.65" shape-rendering="crispEdges"/><rect fill="#242f38" x="683.2" y="196.7" width="12.2" height="24.65" shape-rendering="crispEdges"/><rect fill="#242f38" x="695.4" y="196.7" width="24.4" height="24.65" shape-rendering="crispEdges"/><rect fill="#242f38" x="719.8" y="196.7" width="12.2" height="24.65" shape-rendering="crispEdges"/><rect fill="#1e1e1e" x="732" y="196.7" width="1464" height="24.65" shape-rendering="crispEdges"/><rect fill="#242f38" x="0" y="221.1" width="12.2" height="24.65" shape-rendering="crispEdges"/><rect fill="#242f38" x="12.2" y="221.1" width="24.4" height="24.65" shape-rendering="crispEdges"/><rect fill="#191919" x="36.6" y="221.1" width="12.2" height="24.65" shape-rendering="crispEdges"/><rect fill="#1e1e1e" x="48.8" y="221.1" width="634.4" height="24.65" shape-rendering="crispEdges"/><rect fill="#242f38" x="683.2" y="221.1" width="12.2" height="24.65" shape-rendering="crispEdges"/><rect fill="#242f38" x="695.4" y="221.1" width="24.4" height="24.65" shape-rendering="crispEdges"/><rect fill="#242f38" x="719.8" y="221.1" width="12.2" height="24.65" shape-rendering="crispEdges"/><rect fill="#1e1e1e" x="732" y="221.1" width="1464" height="24.65" shape-rendering="crispEdges"/><rect fill="#242f38" x="0" y="245.5" width="12.2" height="24.65" shape-rendering="crispEdges"/><rect fill="#242f38" x="12.2" y="245.5" width="24.4" height="24.65" shape-rendering="crispEdges"/><rect fill="#242f38" x="36.6" y="245.5" width="109.8" height="24.65" shape-rendering="crispEdges"/><rect fill="#242f38" x="146.4" y="245.5" width="549" height="24.65" shape-rendering="crispEdges"/><rect fill="#242f38" x="695.4" y="245.5" width="24.4" height="24.65" shape-rendering="crispEdges"/><rect fill="#242f38" x="719.8" y="245.5" width="12.2" height="24.65" shape-rendering="crispEdges"/><rect fill="#1e1e1e" x="732" y="245.5" width="1464" height="24.65" shape-rendering="crispEdges"/><rect fill="#242f38" x="0" y="269.9" width="12.2" height="24.65" shape-rendering="crispEdges"/><rect fill="#242f38" x="12.2" y="269.9" width="24.4" height="24.65" shape-rendering="crispEdges"/><rect fill="#0178d4" x="36.6" y="269.9" width="12.2" height="24.65" shape-rendering="crispEdges"/><rect fill="#272727" x="48.8" y="269.9" width="634.4" height="24.65" shape-rendering="crispEdges"/><rect fill="#242f38" x="683.2" y="269.9" width="12.2" height="24.65" shape-rendering="crispEdges"/><rect fill="#242f38" x="695.4" y="269.9" width="24.4" height="24.65" shape-rendering="crispEdges"/><rect fill="#242f38" x="719.8" y="269.9" width="12.2" height="24.65" shape-rendering="crispEdges"/><rect fill="#1e1e1e" x="732" y="269.9" width="1464" height="24.65" shape-rendering="crispEdges"/><rect fill="#242f38" x="0" y="294.3" width="12.2" height="24.65" shape-rendering="crispEdges"/><rect fill="#242f38" x="12.2" y="294.3" width="24.4" height="24.65" shape-rendering="crispEdges"/><rect fill="#0178d4" x="36.6" y="294.3" width="12.2" height="24.65" shape-rendering="crispEdges"/><rect fill="#272727" x="48.8" y="294.3" width="24.4" height="24.65" shape-rendering="crispEdges"/><rect fill="#2d4e74" x="73.2" y="294.3" width="97.6" height="24.65" shape-rendering="crispEdges"/><rect fill="#e0e0e0" x="170.8" y="294.3" width="12.2" height="24.65" shape-rendering="crispEdges"/><rect fill="#272727" x="183" y="294.3" width="475.8" height="24.65" shape-rendering="crispEdges"/><rect fill="#272727" x="658.8" y="294.3" width="24.4" height="24.65" shape-rendering="crispEdges"/><rect fill="#242f38" x="683.2" y="294.3" width="12.2" height="24.65" shape-rendering="crispEdges"/><rect fill="#242f38" x="695.4" y="294.3" width="24.4" height="24.65" shape-rendering="crispEdges"/><rect fill="#242f38" x="719.8" y="294.3" width="12.2" height="24.65" shape-rendering="crispEdges"/><rect fill="#1e1e1e" x="732" y="294.3" width="1464" height="24.65" shape-rendering="crispEdges"/><rect fill="#242f38" x="0" y="318.7" width="12.2" height="24.65" shape-rendering="crispEdges"/><rect fill="#242f38" x="12.2" y="318.7" width="24.4" height="24.65" shape-rendering="crispEdges"/><rect fill="#0178d4" x="36.6" y="318.7" width="12.2" height="24.65" shape-rendering="crispEdges"/><rect fill="#272727" x="48.8" y="318.7" width="634.4" height="24.65" shape-rendering="crispEdges"/><rect fill="#242f38" x="683.2" y="318.7" width="12.2" height="24.65" shape-rendering="crispEdges"/><rect fill="#242f38" x="695.4" y="318.7" width="24.4" height="24.65" shape-rendering="crispEdges"/><rect fill="#242f38" x="719.8" y="318.7" width="12.2" height="24.65" shape-rendering="crispEdges"/><rect fill="#1e1e1e" x="732" y="318.7" width="1464" height="24.65" shape-rendering="crispEdges"/><rect fill="#242f38" x="0" y="343.1" width="12.2" height="24.65" shape-rendering="crispEdges"/><rect fill="#242f38" x="12.2" y="343.1" width="24.4" height="24.65" shape-rendering="crispEdges"/><rect fill="#4ebf71" x="36.6" y="343.1" width="195.2" height="24.65" shape-rendering="crispEdges"/><rect fill="#242f38" x="231.8" y="343.1" width="463.6" height="24.65" shape-rendering="crispEdges"/><rect fill="#242f38" x="695.4" y="343.1" width="24.4" height="24.65" shape-rendering="crispEdges"/><rect fill="#242f38" x="719.8" y="343.1" width="12.2" height="24.65" shape-rendering="crispEdges"/><rect fill="#1e1e1e" x="732" y="343.1" width="1464" height="24.65" shape-rendering="crispEdges"/><rect fill="#242f38" x="0" y="367.5" width="12.2" height="24.65" shape-rendering="crispEdges"/><rect fill="#242f38" x="12.2" y="367.5" width="24.4" height="24.65" shape-rendering="crispEdges"/><rect fill="#4ebf71" x="36.6" y="367.5" width="36.6" height="24.65" shape-rendering="crispEdges"/><rect fill="#4ebf71" x="73.2" y="367.5" width="109.8" height="24.65" shape-rendering="crispEdges"/><rect fill="#4ebf71" x="183" y="367.5" width="48.8" height="24.65" shape-rendering="crispEdges"/><rect fill="#242f38" x="231.8" y="367.5" width="463.6" height="24.65" shape-rendering="crispEdges"/><rect fill="#242f38" x="695.4" y="367.5" width="24.4" height="24.65" shape-rendering="crispEdges"/><rect fill="#242f38" x="719.8" y="367.5" width="12.2" height="24.65" shape-rendering="crispEdges"/><rect fill="#1e1e1e" x="732" y="367.5" width="1464" height="24.65" shape-rendering="crispEdges"/><rect fill="#242f38" x="0" y="391.9" width="12.2" height="24.65" shape-rendering="crispEdges"/><rect fill="#242f38" x="12.2" y="391.9" width="24.4" height="24.65" shape-rendering="crispEdges"/><rect fill="#4ebf71" x="36.6" y="391.9" width="195.2" height="24.65" shape-rendering="crispEdges"/><rect fill="#242f38" x="231.8" y="391.9" width="463.6" height="24.65" shape-rendering="crispEdges"/><rect fill="#242f38" x="695.4" y="391.9" width="24.4" height="24.65" shape-rendering="crispEdges"/><rect fill="#242f38" x="719.8" y="391.9" width="12.2" height="24.65" shape-rendering="crispEdges"/><rect fill="#1e1e1e" x="732" y="391.9" width="1464" height="24.65" shape-rendering="crispEdges"/><rect fill="#242f38" x="0" y="416.3" width="12.2" height="24.65" shape-rendering="crispEdges"/><rect fill="#242f38" x="12.2" y="416.3" width="24.4" height="24.65" shape-rendering="crispEdges"/><rect fill="#242f38" x="36.6" y="416.3" width="658.8" height="24.65" shape-rendering="crispEdges"/><rect fill="#242f38" x="695.4" y="416.3" width="24.4" height="24.65" shape-rendering="crispEdges"/><rect fill="#242f38" x="719.8" y="416.3" width="12.2" height="24.65" shape-rendering="crispEdges"/><rect fill="#1e1e1e" x="732" y="416.3" width="1464" height="24.65" shape-rendering="crispEdges"/><rect fill="#242f38" x="0" y="440.7" width="12.2" height="24.65" shape-rendering="crispEdges"/><rect fill="#242f38" x="12.2" y="440.7" width="24.4" height="24.65" shape-rendering="crispEdges"/><rect fill="#242f38" x="36.6" y="440.7" width="0" height="24.65" shape-rendering="crispEdges"/><rect fill="#242f38" x="36.6" y="440.7" width="658.8" height="24.65" shape-rendering="crispEdges"/><rect fill="#242f38" x="695.4" y="440.7" width="24.4" height="24.65" shape-rendering="crispEdges"/><rect fill="#242f38" x="719.8" y="440.7" width="12.2" height="24.65" shape-rendering="crispEdges"/><rect fill="#1e1e1e" x="732" y="440.7" width="1464" height="24.65" shape-rendering="crispEdges"/><rect fill="#242f38" x="0" y="465.1" width="12.2" height="24.65" shape-rendering="crispEdges"/><rect fill="#242f38" x="12.2" y="465.1" width="24.4" height="24.65" shape-rendering="crispEdges"/><rect fill="#242f38" x="36.6" y="465.1" width="658.8" height="24.65" shape-rendering="crispEdges"/><rect fill="#242f38" x="695.4" y="465.1" width="24.4" height="24.65" shape-rendering="crispEdges"/><rect fill="#242f38" x="719.8" y="465.1" width="12.2" height="24.65" shape-rendering="crispEdges"/><rect fill="#1e1e1e" x="732" y="465.1" width="1464" height="24.65" shape-rendering="crispEdges"/><rect fill="#242f38" x="0" y="489.5" width="12.2" height="24.65" shape-rendering="crispEdges"/><rect fill="#242f38" x="12.2" y="489.5" width="24.4" height="24.65" shape-rendering="crispEdges"/><rect fill="#242f38" x="36.6" y="489.5" width="353.8" height="24.65" shape-rendering="crispEdges"/><rect fill="#242f38" x="390.4" y="489.5" width="305" height="24.65" shape-rendering="crispEdges"/><rect fill="#242f38" x="695.4" y="489.5" width="24.4" height="24.65" shape-rendering="crispEdges"/><rect fill="#242f38" x="719.8" y="489.5" width="12.2" height="24.65" shape-rendering="crispEdges"/><rect fill="#1e1e1e" x="732" y="489.5" width="1464" height="24.65" shape-rendering="crispEdges"/><rect fill="#242f38" x="0" y="513.9" width="12.2" height="24.65" shape-rendering="crispEdges"/><rect fill="#242f38" x="12.2" y="513.9" width="707.6" height="24.65" shape-rendering="crispEdges"/><rect fill="#242f38" x="719.8" y="513.9" width="12.2" height="24.65" shape-rendering="crispEdges"/><rect fill="#1e1e1e" x="732" y="513.9" width="1464" height="24.65" shape-rendering="crispEdges"/><rect fill="#242f38" x="0" y="538.3" width="12.2" height="24.65" shape-rendering="crispEdges"/><rect fill="#242f38" x="12.2" y="538.3" width="707.6" height="24.65" shape-rendering="crispEdges"/><rect fill="#242f38" x="719.8" y="538.3" width="12.2" height="24.65" shape-rendering="crispEdges"/><rect fill="#1e1e1e" x="732" y="538.3" width="1464" height="24.65" shape-rendering="crispEdges"/><rect fill="#1e1e1e" x="0" y="562.7" width="2196" height="24.65" shape-rendering="crispEdges"/><rect fill="#1e1e1e" x="0" y="587.1" width="2196" height="24.65" shape-rendering="crispEdges"/><rect fill="#1e1e1e" x="0" y="611.5" width="2196" height="24.65" shape-rendering="crispEdges"/><rect fill="#1e1e1e" x="0" y="635.9" width="2196" height="24.65" shape-rendering="crispEdges"/><rect fill="#1e1e1e" x="0" y="660.3" width="2196" height="24.65" shape-rendering="crispEdges"/><rect fill="#1e1e1e" x="0" y="684.7" width="2196" height="24.65" shape-rendering="crispEdges"/><rect fill="#1e1e1e" x="0" y="709.1" width="2196" height="24.65" shape-rendering="crispEdges"/><rect fill="#1e1e1e" x="0" y="733.5" width="2196" height="24.65" shape-rendering="crispEdges"/><rect fill="#1e1e1e" x="0" y="757.9" width="2196" height="24.65" shape-rendering="crispEdges"/><rect fill="#1e1e1e" x="0" y="782.3" width="2196" height="24.65" shape-rendering="crispEdges"/><rect fill="#1e1e1e" x="0" y="806.7" width="2196" height="24.65" shape-rendering="crispEdges"/><rect fill="#1e1e1e" x="0" y="831.1" width="2196" height="24.65" shape-rendering="crispEdges"/><rect fill="#1e1e1e" x="0" y="855.5" width="2196" height="24.65" shape-rendering="crispEdges"/><rect fill="#1e1e1e" x="0" y="879.9" width="2196" height="24.65" shape-rendering="crispEdges"/><rect fill="#1e1e1e" x="0" y="904.3" width="2196" height="24.65" shape-rendering="crispEdges"/><rect fill="#1e1e1e" x="0" y="928.7" width="2196" height="24.65" shape-rendering="crispEdges"/><rect fill="#1e1e1e" x="0" y="953.1" width="2196" height="24.65" shape-rendering="crispEdges"/><rect fill="#1e1e1e" x="0" y="977.5" width="2196" height="24.65" shape-rendering="crispEdges"/><rect fill="#1e1e1e" x="0" y="1001.9" width="2196" height="24.65" shape-rendering="crispEdges"/><rect fill="#1e1e1e" x="0" y="1026.3" width="2196" height="24.65" shape-rendering="crispEdges"/><rect fill="#1e1e1e" x="0" y="1050.7" width="2196" height="24.65" shape-rendering="crispEdges"/><rect fill="#1e1e1e" x="0" y="1075.1" width="2196" height="24.65" shape-rendering="crispEdges"/><rect fill="#1e1e1e" x="0" y="1099.5" width="2196" height="24.65" shape-rendering="crispEdges"/><rect fill="#1e1e1e" x="0" y="1123.9" width="2196" height="24.65" shape-rendering="crispEdges"/><rect fill="#1e1e1e" x="0" y="1148.3" width="2196" height="24.65" shape-rendering="crispEdges"/><rect fill="#1e1e1e" x="0" y="1172.7" width="2196" height="24.65" shape-rendering="crispEdges"/><rect fill="#242f38" x="0" y="1197.1" width="61" height="24.65" shape-rendering="crispEdges"/><rect fill="#242f38" x="61" y="1197.1" width="61" height="24.65" shape-rendering="crispEdges"/><rect fill="#242f38" x="122" y="1197.1" width="1927.6" height="24.65" shape-rendering="crispEdges"/><rect fill="#242f38" x="2049.6" y="1197.1" width="12.2" height="24.65" shape-rendering="crispEdges"/><rect fill="#242f38" x="2061.8" y="1197.1" width="24.4" height="24.65" shape-rendering="crispEdges"/><rect fill="#242f38" x="2086.2" y="1197.1" width="97.6" height="24.65" shape-rendering="crispEdges"/><rect fill="#242f38" x="2183.8" y="1197.1" width="12.2" height="24.65" shape-rendering="crispEdges"/>
    <g class="terminal-102915843-matrix">
    <text class="terminal-102915843-r2" x="12.2" y="20" textLength="12.2" clip-path="url(#terminal-102915843-line-0)">⭘</text><text class="terminal-102915843-r2" x="890.6" y="20" textLength="73.2" clip-path="url(#terminal-102915843-line-0)">dr-tui</text><text class="terminal-102915843-r3" x="963.8" y="20" textLength="36.6" clip-path="url(#terminal-102915843-line-0)">&#160;—&#160;</text><text class="terminal-102915843-r3" x="1000.4" y="20" textLength="280.6" clip-path="url(#terminal-102915843-line-0)">Digital&#160;Reef&#160;eDiscovery</text><text class="terminal-102915843-r4" x="2086.2" y="20" textLength="97.6" clip-path="url(#terminal-102915843-line-0)">09:27:00</text><text class="terminal-102915843-r1" x="2196" y="20" textLength="12.2" clip-path="url(#terminal-102915843-line-0)">
</text><text class="terminal-102915843-r5" x="0" y="44.4" textLength="12.2" clip-path="url(#terminal-102915843-line-1)">╭</text><text class="terminal-102915843-r5" x="12.2" y="44.4" textLength="707.6" clip-path="url(#terminal-102915843-line-1)">──────────────────────────────────────────────────────────</text><text class="terminal-102915843-r5" x="719.8" y="44.4" textLength="12.2" clip-path="url(#terminal-102915843-line-1)">╮</text><text class="terminal-102915843-r1" x="2196" y="44.4" textLength="12.2" clip-path="url(#terminal-102915843-line-1)">
</text><text class="terminal-102915843-r5" x="0" y="68.8" textLength="12.2" clip-path="url(#terminal-102915843-line-2)">│</text><text class="terminal-102915843-r5" x="719.8" y="68.8" textLength="12.2" clip-path="url(#terminal-102915843-line-2)">│</text><text class="terminal-102915843-r1" x="2196" y="68.8" textLength="12.2" clip-path="url(#terminal-102915843-line-2)">
</text><text class="terminal-102915843-r5" x="0" y="93.2" textLength="12.2" clip-path="url(#terminal-102915843-line-3)">│</text><text class="terminal-102915843-r6" x="256.2" y="93.2" textLength="207.4" clip-path="url(#terminal-102915843-line-3)">DR&#160;eDiscovery&#160;TUI</text><text class="terminal-102915843-r5" x="719.8" y="93.2" textLength="12.2" clip-path="url(#terminal-102915843-line-3)">│</text><text class="terminal-102915843-r1" x="2196" y="93.2" textLength="12.2" clip-path="url(#terminal-102915843-line-3)">
</text><text class="terminal-102915843-r5" x="0" y="117.6" textLength="12.2" clip-path="url(#terminal-102915843-line-4)">│</text><text class="terminal-102915843-r5" x="719.8" y="117.6" textLength="12.2" clip-path="url(#terminal-102915843-line-4)">│</text><text class="terminal-102915843-r1" x="2196" y="117.6" textLength="12.2" clip-path="url(#terminal-102915843-line-4)">
</text><text class="terminal-102915843-r5" x="0" y="142" textLength="12.2" clip-path="url(#terminal-102915843-line-5)">│</text><text class="terminal-102915843-r2" x="36.6" y="142" textLength="134.2" clip-path="url(#terminal-102915843-line-5)">Sign&#160;in&#160;as:</text><text class="terminal-102915843-r5" x="719.8" y="142" textLength="12.2" clip-path="url(#terminal-102915843-line-5)">│</text><text class="terminal-102915843-r1" x="2196" y="142" textLength="12.2" clip-path="url(#terminal-102915843-line-5)">
</text><text class="terminal-102915843-r5" x="0" y="166.4" textLength="12.2" clip-path="url(#terminal-102915843-line-6)">│</text><text class="terminal-102915843-r7" x="36.6" y="166.4" textLength="12.2" clip-path="url(#terminal-102915843-line-6)">▊</text><text class="terminal-102915843-r8" x="48.8" y="166.4" textLength="634.4" clip-path="url(#terminal-102915843-line-6)">▔▔▔▔▔▔▔▔▔▔▔▔▔▔▔▔▔▔▔▔▔▔▔▔▔▔▔▔▔▔▔▔▔▔▔▔▔▔▔▔▔▔▔▔▔▔▔▔▔▔▔▔</text><text class="terminal-102915843-r8" x="683.2" y="166.4" textLength="12.2" clip-path="url(#terminal-102915843-line-6)">▎</text><text class="terminal-102915843-r5" x="719.8" y="166.4" textLength="12.2" clip-path="url(#terminal-102915843-line-6)">│</text><text class="terminal-102915843-r1" x="2196" y="166.4" textLength="12.2" clip-path="url(#terminal-102915843-line-6)">
</text><text class="terminal-102915843-r5" x="0" y="190.8" textLength="12.2" clip-path="url(#terminal-102915843-line-7)">│</text><text class="terminal-102915843-r7" x="36.6" y="190.8" textLength="12.2" clip-path="url(#terminal-102915843-line-7)">▊</text><text class="terminal-102915843-r7" x="61" y="190.8" textLength="12.2" clip-path="url(#terminal-102915843-line-7)">▐</text><text class="terminal-102915843-r9" x="73.2" y="190.8" textLength="12.2" clip-path="url(#terminal-102915843-line-7)">●</text><text class="terminal-102915843-r7" x="85.4" y="190.8" textLength="12.2" clip-path="url(#terminal-102915843-line-7)">▌</text><text class="terminal-102915843-r2" x="97.6" y="190.8" textLength="439.2" clip-path="url(#terminal-102915843-line-7)">&#160;DRSysAdmin&#160;(super_system_customer)&#160;</text><text class="terminal-102915843-r8" x="683.2" y="190.8" textLength="12.2" clip-path="url(#terminal-102915843-line-7)">▎</text><text class="terminal-102915843-r5" x="719.8" y="190.8" textLength="12.2" clip-path="url(#terminal-102915843-line-7)">│</text><text class="terminal-102915843-r1" x="2196" y="190.8" textLength="12.2" clip-path="url(#terminal-102915843-line-7)">
</text><text class="terminal-102915843-r5" x="0" y="215.2" textLength="12.2" clip-path="url(#terminal-102915843-line-8)">│</text><text class="terminal-102915843-r7" x="36.6" y="215.2" textLength="12.2" clip-path="url(#terminal-102915843-line-8)">▊</text><text class="terminal-102915843-r7" x="61" y="215.2" textLength="12.2" clip-path="url(#terminal-102915843-line-8)">▐</text><text class="terminal-102915843-r10" x="73.2" y="215.2" textLength="12.2" clip-path="url(#terminal-102915843-line-8)">●</text><text class="terminal-102915843-r7" x="85.4" y="215.2" textLength="12.2" clip-path="url(#terminal-102915843-line-8)">▌</text><text class="terminal-102915843-r2" x="97.6" y="215.2" textLength="549" clip-path="url(#terminal-102915843-line-8)">&#160;admin@training&#160;(organization&#160;administrator)&#160;</text><text class="terminal-102915843-r8" x="683.2" y="215.2" textLength="12.2" clip-path="url(#terminal-102915843-line-8)">▎</text><text class="terminal-102915843-r5" x="719.8" y="215.2" textLength="12.2" clip-path="url(#terminal-102915843-line-8)">│</text><text class="terminal-102915843-r1" x="2196" y="215.2" textLength="12.2" clip-path="url(#terminal-102915843-line-8)">
</text><text class="terminal-102915843-r5" x="0" y="239.6" textLength="12.2" clip-path="url(#terminal-102915843-line-9)">│</text><text class="terminal-102915843-r7" x="36.6" y="239.6" textLength="12.2" clip-path="url(#terminal-102915843-line-9)">▊</text><text class="terminal-102915843-r8" x="48.8" y="239.6" textLength="634.4" clip-path="url(#terminal-102915843-line-9)">▁▁▁▁▁▁▁▁▁▁▁▁▁▁▁▁▁▁▁▁▁▁▁▁▁▁▁▁▁▁▁▁▁▁▁▁▁▁▁▁▁▁▁▁▁▁▁▁▁▁▁▁</text><text class="terminal-102915843-r8" x="683.2" y="239.6" textLength="12.2" clip-path="url(#terminal-102915843-line-9)">▎</text><text class="terminal-102915843-r5" x="719.8" y="239.6" textLength="12.2" clip-path="url(#terminal-102915843-line-9)">│</text><text class="terminal-102915843-r1" x="2196" y="239.6" textLength="12.2" clip-path="url(#terminal-102915843-line-9)">
</text><text class="terminal-102915843-r5" x="0" y="264" textLength="12.2" clip-path="url(#terminal-102915843-line-10)">│</text><text class="terminal-102915843-r2" x="36.6" y="264" textLength="109.8" clip-path="url(#terminal-102915843-line-10)">Password:</text><text class="terminal-102915843-r5" x="719.8" y="264" textLength="12.2" clip-path="url(#terminal-102915843-line-10)">│</text><text class="terminal-102915843-r1" x="2196" y="264" textLength="12.2" clip-path="url(#terminal-102915843-line-10)">
</text><text class="terminal-102915843-r5" x="0" y="288.4" textLength="12.2" clip-path="url(#terminal-102915843-line-11)">│</text><text class="terminal-102915843-r7" x="36.6" y="288.4" textLength="12.2" clip-path="url(#terminal-102915843-line-11)">▊</text><text class="terminal-102915843-r11" x="48.8" y="288.4" textLength="634.4" clip-path="url(#terminal-102915843-line-11)">▔▔▔▔▔▔▔▔▔▔▔▔▔▔▔▔▔▔▔▔▔▔▔▔▔▔▔▔▔▔▔▔▔▔▔▔▔▔▔▔▔▔▔▔▔▔▔▔▔▔▔▔</text><text class="terminal-102915843-r11" x="683.2" y="288.4" textLength="12.2" clip-path="url(#terminal-102915843-line-11)">▎</text><text class="terminal-102915843-r5" x="719.8" y="288.4" textLength="12.2" clip-path="url(#terminal-102915843-line-11)">│</text><text class="terminal-102915843-r1" x="2196" y="288.4" textLength="12.2" clip-path="url(#terminal-102915843-line-11)">
</text><text class="terminal-102915843-r5" x="0" y="312.8" textLength="12.2" clip-path="url(#terminal-102915843-line-12)">│</text><text class="terminal-102915843-r7" x="36.6" y="312.8" textLength="12.2" clip-path="url(#terminal-102915843-line-12)">▊</text><text class="terminal-102915843-r2" x="73.2" y="312.8" textLength="97.6" clip-path="url(#terminal-102915843-line-12)">••••••••</text><text class="terminal-102915843-r11" x="683.2" y="312.8" textLength="12.2" clip-path="url(#terminal-102915843-line-12)">▎</text><text class="terminal-102915843-r5" x="719.8" y="312.8" textLength="12.2" clip-path="url(#terminal-102915843-line-12)">│</text><text class="terminal-102915843-r1" x="2196" y="312.8" textLength="12.2" clip-path="url(#terminal-102915843-line-12)">
</text><text class="terminal-102915843-r5" x="0" y="337.2" textLength="12.2" clip-path="url(#terminal-102915843-line-13)">│</text><text class="terminal-102915843-r7" x="36.6" y="337.2" textLength="12.2" clip-path="url(#terminal-102915843-line-13)">▊</text><text class="terminal-102915843-r11" x="48.8" y="337.2" textLength="634.4" clip-path="url(#terminal-102915843-line-13)">▁▁▁▁▁▁▁▁▁▁▁▁▁▁▁▁▁▁▁▁▁▁▁▁▁▁▁▁▁▁▁▁▁▁▁▁▁▁▁▁▁▁▁▁▁▁▁▁▁▁▁▁</text><text class="terminal-102915843-r11" x="683.2" y="337.2" textLength="12.2" clip-path="url(#terminal-102915843-line-13)">▎</text><text class="terminal-102915843-r5" x="719.8" y="337.2" textLength="12.2" clip-path="url(#terminal-102915843-line-13)">│</text><text class="terminal-102915843-r1" x="2196" y="337.2" textLength="12.2" clip-path="url(#terminal-102915843-line-13)">
</text><text class="terminal-102915843-r5" x="0" y="361.6" textLength="12.2" clip-path="url(#terminal-102915843-line-14)">│</text><text class="terminal-102915843-r13" x="36.6" y="361.6" textLength="195.2" clip-path="url(#terminal-102915843-line-14)">▔▔▔▔▔▔▔▔▔▔▔▔▔▔▔▔</text><text class="terminal-102915843-r5" x="719.8" y="361.6" textLength="12.2" clip-path="url(#terminal-102915843-line-14)">│</text><text class="terminal-102915843-r1" x="2196" y="361.6" textLength="12.2" clip-path="url(#terminal-102915843-line-14)">
</text><text class="terminal-102915843-r5" x="0" y="386" textLength="12.2" clip-path="url(#terminal-102915843-line-15)">│</text><text class="terminal-102915843-r14" x="73.2" y="386" textLength="109.8" clip-path="url(#terminal-102915843-line-15)">&#160;Sign&#160;in&#160;</text><text class="terminal-102915843-r5" x="719.8" y="386" textLength="12.2" clip-path="url(#terminal-102915843-line-15)">│</text><text class="terminal-102915843-r1" x="2196" y="386" textLength="12.2" clip-path="url(#terminal-102915843-line-15)">
</text><text class="terminal-102915843-r5" x="0" y="410.4" textLength="12.2" clip-path="url(#terminal-102915843-line-16)">│</text><text class="terminal-102915843-r15" x="36.6" y="410.4" textLength="195.2" clip-path="url(#terminal-102915843-line-16)">▁▁▁▁▁▁▁▁▁▁▁▁▁▁▁▁</text><text class="terminal-102915843-r5" x="719.8" y="410.4" textLength="12.2" clip-path="url(#terminal-102915843-line-16)">│</text><text class="terminal-102915843-r1" x="2196" y="410.4" textLength="12.2" clip-path="url(#terminal-102915843-line-16)">
</text><text class="terminal-102915843-r5" x="0" y="434.8" textLength="12.2" clip-path="url(#terminal-102915843-line-17)">│</text><text class="terminal-102915843-r5" x="719.8" y="434.8" textLength="12.2" clip-path="url(#terminal-102915843-line-17)">│</text><text class="terminal-102915843-r1" x="2196" y="434.8" textLength="12.2" clip-path="url(#terminal-102915843-line-17)">
</text><text class="terminal-102915843-r5" x="0" y="459.2" textLength="12.2" clip-path="url(#terminal-102915843-line-18)">│</text><text class="terminal-102915843-r5" x="719.8" y="459.2" textLength="12.2" clip-path="url(#terminal-102915843-line-18)">│</text><text class="terminal-102915843-r1" x="2196" y="459.2" textLength="12.2" clip-path="url(#terminal-102915843-line-18)">
</text><text class="terminal-102915843-r5" x="0" y="483.6" textLength="12.2" clip-path="url(#terminal-102915843-line-19)">│</text><text class="terminal-102915843-r5" x="719.8" y="483.6" textLength="12.2" clip-path="url(#terminal-102915843-line-19)">│</text><text class="terminal-102915843-r1" x="2196" y="483.6" textLength="12.2" clip-path="url(#terminal-102915843-line-19)">
</text><text class="terminal-102915843-r5" x="0" y="508" textLength="12.2" clip-path="url(#terminal-102915843-line-20)">│</text><text class="terminal-102915843-r17" x="36.6" y="508" textLength="353.8" clip-path="url(#terminal-102915843-line-20)">Enter&#160;to&#160;submit&#160;·&#160;Esc&#160;to&#160;quit</text><text class="terminal-102915843-r5" x="719.8" y="508" textLength="12.2" clip-path="url(#terminal-102915843-line-20)">│</text><text class="terminal-102915843-r1" x="2196" y="508" textLength="12.2" clip-path="url(#terminal-102915843-line-20)">
</text><text class="terminal-102915843-r5" x="0" y="532.4" textLength="12.2" clip-path="url(#terminal-102915843-line-21)">│</text><text class="terminal-102915843-r5" x="719.8" y="532.4" textLength="12.2" clip-path="url(#terminal-102915843-line-21)">│</text><text class="terminal-102915843-r1" x="2196" y="532.4" textLength="12.2" clip-path="url(#terminal-102915843-line-21)">
</text><text class="terminal-102915843-r5" x="0" y="556.8" textLength="12.2" clip-path="url(#terminal-102915843-line-22)">╰</text><text class="terminal-102915843-r5" x="12.2" y="556.8" textLength="707.6" clip-path="url(#terminal-102915843-line-22)">──────────────────────────────────────────────────────────</text><text class="terminal-102915843-r5" x="719.8" y="556.8" textLength="12.2" clip-path="url(#terminal-102915843-line-22)">╯</text><text class="terminal-102915843-r1" x="2196" y="556.8" textLength="12.2" clip-path="url(#terminal-102915843-line-22)">
</text><text class="terminal-102915843-r1" x="2196" y="581.2" textLength="12.2" clip-path="url(#terminal-102915843-line-23)">
</text><text class="terminal-102915843-r1" x="2196" y="605.6" textLength="12.2" clip-path="url(#terminal-102915843-line-24)">
</text><text class="terminal-102915843-r1" x="2196" y="630" textLength="12.2" clip-path="url(#terminal-102915843-line-25)">
</text><text class="terminal-102915843-r1" x="2196" y="654.4" textLength="12.2" clip-path="url(#terminal-102915843-line-26)">
</text><text class="terminal-102915843-r1" x="2196" y="678.8" textLength="12.2" clip-path="url(#terminal-102915843-line-27)">
</text><text class="terminal-102915843-r1" x="2196" y="703.2" textLength="12.2" clip-path="url(#terminal-102915843-line-28)">
</text><text class="terminal-102915843-r1" x="2196" y="727.6" textLength="12.2" clip-path="url(#terminal-102915843-line-29)">
</text><text class="terminal-102915843-r1" x="2196" y="752" textLength="12.2" clip-path="url(#terminal-102915843-line-30)">
</text><text class="terminal-102915843-r1" x="2196" y="776.4" textLength="12.2" clip-path="url(#terminal-102915843-line-31)">
</text><text class="terminal-102915843-r1" x="2196" y="800.8" textLength="12.2" clip-path="url(#terminal-102915843-line-32)">
</text><text class="terminal-102915843-r1" x="2196" y="825.2" textLength="12.2" clip-path="url(#terminal-102915843-line-33)">
</text><text class="terminal-102915843-r1" x="2196" y="849.6" textLength="12.2" clip-path="url(#terminal-102915843-line-34)">
</text><text class="terminal-102915843-r1" x="2196" y="874" textLength="12.2" clip-path="url(#terminal-102915843-line-35)">
</text><text class="terminal-102915843-r1" x="2196" y="898.4" textLength="12.2" clip-path="url(#terminal-102915843-line-36)">
</text><text class="terminal-102915843-r1" x="2196" y="922.8" textLength="12.2" clip-path="url(#terminal-102915843-line-37)">
</text><text class="terminal-102915843-r1" x="2196" y="947.2" textLength="12.2" clip-path="url(#terminal-102915843-line-38)">
</text><text class="terminal-102915843-r1" x="2196" y="971.6" textLength="12.2" clip-path="url(#terminal-102915843-line-39)">
</text><text class="terminal-102915843-r1" x="2196" y="996" textLength="12.2" clip-path="url(#terminal-102915843-line-40)">
</text><text class="terminal-102915843-r1" x="2196" y="1020.4" textLength="12.2" clip-path="url(#terminal-102915843-line-41)">
</text><text class="terminal-102915843-r1" x="2196" y="1044.8" textLength="12.2" clip-path="url(#terminal-102915843-line-42)">
</text><text class="terminal-102915843-r1" x="2196" y="1069.2" textLength="12.2" clip-path="url(#terminal-102915843-line-43)">
</text><text class="terminal-102915843-r1" x="2196" y="1093.6" textLength="12.2" clip-path="url(#terminal-102915843-line-44)">
</text><text class="terminal-102915843-r1" x="2196" y="1118" textLength="12.2" clip-path="url(#terminal-102915843-line-45)">
</text><text class="terminal-102915843-r1" x="2196" y="1142.4" textLength="12.2" clip-path="url(#terminal-102915843-line-46)">
</text><text class="terminal-102915843-r1" x="2196" y="1166.8" textLength="12.2" clip-path="url(#terminal-102915843-line-47)">
</text><text class="terminal-102915843-r1" x="2196" y="1191.2" textLength="12.2" clip-path="url(#terminal-102915843-line-48)">
</text><text class="terminal-102915843-r18" x="0" y="1215.6" textLength="61" clip-path="url(#terminal-102915843-line-49)">&#160;esc&#160;</text><text class="terminal-102915843-r2" x="61" y="1215.6" textLength="61" clip-path="url(#terminal-102915843-line-49)">Quit&#160;</text><text class="terminal-102915843-r19" x="2049.6" y="1215.6" textLength="12.2" clip-path="url(#terminal-102915843-line-49)">▏</text><text class="terminal-102915843-r18" x="2061.8" y="1215.6" textLength="24.4" clip-path="url(#terminal-102915843-line-49)">^p</text><text class="terminal-102915843-r2" x="2086.2" y="1215.6" textLength="97.6" clip-path="url(#terminal-102915843-line-49)">&#160;palette</text>
    </g>
    </g>
</svg>
